<svg xmlns="http://www.w3.org/2000/svg" xmlns:xlink="http://www.w3.org/1999/xlink" width="500" zoomAndPan="magnify" viewBox="0 0 375 149.999998" height="200" preserveAspectRatio="xMidYMid meet" version="1.0"><defs><g/></defs><g fill="#000000" fill-opacity="1"><g transform="translate(9.317802, 96.762719)"><g><path d="M 22.4375 0 L 3.1875 0 L 3.1875 -2.75 L 8.875 -4.8125 L 8.875 -39.296875 L 3.1875 -41.359375 L 3.1875 -44.109375 L 22.5 -44.109375 C 29.238281 -44.109375 34.710938 -42.109375 38.921875 -38.109375 C 43.128906 -34.109375 45.234375 -28.773438 45.234375 -22.109375 C 45.234375 -15.453125 43.117188 -10.101562 38.890625 -6.0625 C 34.660156 -2.019531 29.175781 0 22.4375 0 Z M 15.1875 -4.625 L 23.1875 -4.625 C 27.6875 -4.625 31.378906 -6.15625 34.265625 -9.21875 C 37.160156 -12.28125 38.609375 -16.539062 38.609375 -22 C 38.609375 -27.457031 37.148438 -31.734375 34.234375 -34.828125 C 31.328125 -37.929688 27.644531 -39.484375 23.1875 -39.484375 L 15.1875 -39.484375 Z M 15.1875 -4.625 "/></g></g></g><g fill="#000000" fill-opacity="1"><g transform="translate(57.980213, 96.762719)"><g><path d="M 19.125 0 L 2.6875 0 L 2.6875 -2.6875 L 7.9375 -4.75 L 7.9375 -27.0625 L 2.6875 -27.0625 L 2.6875 -30.8125 C 4.3125 -31.59375 6.195312 -31.984375 8.34375 -31.984375 C 10.488281 -31.984375 11.9375 -31.472656 12.6875 -30.453125 C 13.4375 -29.441406 13.8125 -27.894531 13.8125 -25.8125 L 13.8125 -4.75 L 19.125 -2.6875 Z M 14.0625 -39.171875 C 13.101562 -38.210938 11.9375 -37.734375 10.5625 -37.734375 C 9.1875 -37.734375 8.019531 -38.210938 7.0625 -39.171875 C 6.101562 -40.128906 5.625 -41.296875 5.625 -42.671875 C 5.625 -44.046875 6.101562 -45.210938 7.0625 -46.171875 C 8.019531 -47.128906 9.1875 -47.609375 10.5625 -47.609375 C 11.9375 -47.609375 13.101562 -47.128906 14.0625 -46.171875 C 15.019531 -45.210938 15.5 -44.046875 15.5 -42.671875 C 15.5 -41.296875 15.019531 -40.128906 14.0625 -39.171875 Z M 14.0625 -39.171875 "/></g></g></g><g fill="#000000" fill-opacity="1"><g transform="translate(78.719516, 96.762719)"><g><path d="M 25.9375 -22.3125 L 22 -22.3125 L 21.125 -25.4375 C 20.039062 -26.476562 18.375 -27 16.125 -27 C 13.875 -27 12.132812 -26.707031 10.90625 -26.125 C 9.675781 -25.539062 9.0625 -24.757812 9.0625 -23.78125 C 9.0625 -22.800781 9.519531 -21.882812 10.4375 -21.03125 C 11.351562 -20.175781 12.289062 -19.539062 13.25 -19.125 C 14.207031 -18.707031 15.914062 -18.082031 18.375 -17.25 C 20.832031 -16.414062 22.84375 -15.3125 24.40625 -13.9375 C 25.96875 -12.5625 26.75 -10.75 26.75 -8.5 C 26.75 -5.5 25.65625 -3.21875 23.46875 -1.65625 C 21.28125 -0.09375 18.78125 0.6875 15.96875 0.6875 C 13.15625 0.6875 10.738281 0.332031 8.71875 -0.375 C 6.695312 -1.082031 5.25 -1.789062 4.375 -2.5 L 3.125 -3.5625 L 3.125 -10.25 L 6.875 -10.25 L 8.1875 -6.375 C 8.226562 -6.25 8.5625 -6.039062 9.1875 -5.75 C 11.144531 -4.75 13.101562 -4.25 15.0625 -4.25 C 17.019531 -4.25 18.519531 -4.550781 19.5625 -5.15625 C 20.601562 -5.757812 21.125 -6.613281 21.125 -7.71875 C 21.125 -8.820312 20.539062 -9.875 19.375 -10.875 C 18.207031 -11.875 16.257812 -12.78125 13.53125 -13.59375 C 10.800781 -14.40625 8.507812 -15.59375 6.65625 -17.15625 C 4.800781 -18.71875 3.875 -20.539062 3.875 -22.625 C 3.875 -25.75 4.96875 -28.085938 7.15625 -29.640625 C 9.34375 -31.203125 12.164062 -31.984375 15.625 -31.984375 C 17.332031 -31.984375 19.039062 -31.773438 20.75 -31.359375 C 22.457031 -30.953125 23.75 -30.539062 24.625 -30.125 L 25.9375 -29.5 Z M 25.9375 -22.3125 "/></g></g></g><g fill="#000000" fill-opacity="1"><g transform="translate(108.579135, 96.762719)"><g><path d="M 39.171875 0 L 22.75 0 L 22.75 -2.6875 L 27.75 -4.75 L 27.75 -19.6875 C 27.75 -22.144531 27.34375 -23.976562 26.53125 -25.1875 C 25.71875 -26.394531 24.25 -27 22.125 -27 C 18.289062 -27 15.226562 -25.851562 12.9375 -23.5625 L 12.9375 -4.75 L 18.25 -2.6875 L 18.25 0 L 1.8125 0 L 1.8125 -2.6875 L 7.0625 -4.75 L 7.0625 -43.296875 L 1.8125 -43.296875 L 1.8125 -47.046875 C 3.4375 -47.835938 5.320312 -48.234375 7.46875 -48.234375 C 9.613281 -48.234375 11.0625 -47.722656 11.8125 -46.703125 C 12.5625 -45.679688 12.9375 -44.128906 12.9375 -42.046875 L 12.9375 -27.125 C 13.8125 -28.375 15.363281 -29.492188 17.59375 -30.484375 C 19.820312 -31.484375 21.914062 -31.984375 23.875 -31.984375 C 27.125 -31.984375 29.554688 -31.078125 31.171875 -29.265625 C 32.796875 -27.460938 33.609375 -25 33.609375 -21.875 L 33.609375 -4.75 L 39.171875 -2.6875 Z M 39.171875 0 "/></g></g></g><g fill="#000000" fill-opacity="1"><g transform="translate(148.745937, 96.762719)"><g><path d="M 18.75 0.625 C 14.125 0.625 10.320312 -0.726562 7.34375 -3.4375 C 4.363281 -6.144531 2.875 -10.0625 2.875 -15.1875 C 2.875 -18.019531 3.4375 -20.550781 4.5625 -22.78125 C 5.6875 -25.007812 7.164062 -26.769531 9 -28.0625 C 12.789062 -30.675781 16.9375 -31.984375 21.4375 -31.984375 C 22.8125 -31.984375 24.164062 -31.816406 25.5 -31.484375 C 26.832031 -31.160156 27.832031 -30.832031 28.5 -30.5 L 29.5 -29.9375 L 29.5 -22.5625 L 25.6875 -22.5625 L 24.8125 -26.375 C 24.226562 -26.832031 23.101562 -27.0625 21.4375 -27.0625 C 17.851562 -27.0625 14.875 -25.976562 12.5 -23.8125 C 10.125 -21.644531 8.9375 -18.914062 8.9375 -15.625 C 8.9375 -12.332031 9.96875 -9.613281 12.03125 -7.46875 C 14.09375 -5.320312 16.832031 -4.25 20.25 -4.25 C 21.914062 -4.25 23.46875 -4.425781 24.90625 -4.78125 C 26.34375 -5.132812 27.351562 -5.5 27.9375 -5.875 L 28.8125 -6.375 L 30.625 -3.125 C 30.5 -3.039062 30.320312 -2.90625 30.09375 -2.71875 C 29.863281 -2.53125 29.375 -2.226562 28.625 -1.8125 C 27.875 -1.394531 27.082031 -1.019531 26.25 -0.6875 C 24 0.1875 21.5 0.625 18.75 0.625 Z M 18.75 0.625 "/></g></g></g><g fill="#000000" fill-opacity="1"><g transform="translate(181.416589, 96.762719)"><g><path d="M 30.421875 -3.84375 C 27.390625 -0.820312 23.5625 0.6875 18.9375 0.6875 C 14.3125 0.6875 10.476562 -0.820312 7.4375 -3.84375 C 4.394531 -6.863281 2.875 -10.789062 2.875 -15.625 C 2.875 -20.457031 4.394531 -24.390625 7.4375 -27.421875 C 10.476562 -30.460938 14.3125 -31.984375 18.9375 -31.984375 C 23.5625 -31.984375 27.390625 -30.460938 30.421875 -27.421875 C 33.460938 -24.390625 34.984375 -20.457031 34.984375 -15.625 C 34.984375 -10.789062 33.460938 -6.863281 30.421875 -3.84375 Z M 11.75 -7.28125 C 13.625 -5.257812 16.019531 -4.25 18.9375 -4.25 C 21.851562 -4.25 24.25 -5.257812 26.125 -7.28125 C 28 -9.300781 28.9375 -12.019531 28.9375 -15.4375 C 28.9375 -18.851562 27.988281 -21.644531 26.09375 -23.8125 C 24.195312 -25.976562 21.8125 -27.0625 18.9375 -27.0625 C 16.0625 -27.0625 13.675781 -25.976562 11.78125 -23.8125 C 9.882812 -21.644531 8.9375 -18.851562 8.9375 -15.4375 C 8.9375 -12.019531 9.875 -9.300781 11.75 -7.28125 Z M 11.75 -7.28125 "/></g></g></g><g fill="#000000" fill-opacity="1"><g transform="translate(219.272086, 96.762719)"><g><path d="M 1.875 -31.171875 L 17.8125 -31.171875 L 17.8125 -28.4375 L 13.5625 -26.9375 L 21.6875 -6.1875 L 29.5 -26.9375 L 25.25 -28.4375 L 25.25 -31.171875 L 40.859375 -31.171875 L 40.859375 -28.4375 L 35.859375 -26.8125 L 24.5 0 L 18.25 0 L 6.875 -26.8125 L 1.875 -28.4375 Z M 1.875 -31.171875 "/></g></g></g><g fill="#000000" fill-opacity="1"><g transform="translate(262.000066, 96.762719)"><g><path d="M 18.8125 0.625 C 14.101562 0.625 10.28125 -0.71875 7.34375 -3.40625 C 4.40625 -6.09375 2.9375 -10.019531 2.9375 -15.1875 C 2.9375 -20.351562 4.4375 -24.441406 7.4375 -27.453125 C 10.4375 -30.472656 13.9375 -31.984375 17.9375 -31.984375 C 27.425781 -31.984375 32.171875 -26.363281 32.171875 -15.125 L 9 -15.125 L 9 -14.8125 C 9 -11.851562 10.039062 -9.351562 12.125 -7.3125 C 14.207031 -5.269531 17.039062 -4.25 20.625 -4.25 C 22.164062 -4.25 23.625 -4.425781 25 -4.78125 C 26.375 -5.132812 27.375 -5.5 28 -5.875 L 28.875 -6.375 L 30.6875 -3.125 C 30.5625 -3.039062 30.382812 -2.90625 30.15625 -2.71875 C 29.925781 -2.53125 29.4375 -2.226562 28.6875 -1.8125 C 27.9375 -1.394531 27.125 -1.019531 26.25 -0.6875 C 24.039062 0.1875 21.5625 0.625 18.8125 0.625 Z M 26.375 -19.125 C 26.164062 -21.707031 25.320312 -23.675781 23.84375 -25.03125 C 22.363281 -26.382812 20.445312 -27.0625 18.09375 -27.0625 C 15.738281 -27.0625 13.789062 -26.40625 12.25 -25.09375 C 10.707031 -23.78125 9.707031 -21.789062 9.25 -19.125 Z M 26.375 -19.125 "/></g></g></g><g fill="#000000" fill-opacity="1"><g transform="translate(296.669697, 96.762719)"><g><path d="M 19 0 L 2.5625 0 L 2.5625 -2.6875 L 7.8125 -4.75 L 7.8125 -27.0625 L 2.5625 -27.0625 L 2.5625 -30.8125 C 4.1875 -31.59375 6.019531 -31.984375 8.0625 -31.984375 C 10.101562 -31.984375 11.519531 -31.546875 12.3125 -30.671875 C 13.101562 -29.804688 13.539062 -28.519531 13.625 -26.8125 C 14.039062 -28.0625 14.894531 -29.1875 16.1875 -30.1875 C 17.726562 -31.382812 19.769531 -31.984375 22.3125 -31.984375 C 23.4375 -31.984375 24.507812 -31.835938 25.53125 -31.546875 C 26.550781 -31.253906 27.289062 -30.96875 27.75 -30.6875 L 28.5 -30.25 L 28.5 -22.875 L 24.75 -22.875 L 23.9375 -26.625 C 23.6875 -26.875 23 -27 21.875 -27 C 20.75 -27 19.664062 -26.84375 18.625 -26.53125 C 17.582031 -26.21875 16.769531 -25.832031 16.1875 -25.375 C 15.019531 -24.375 14.1875 -23.351562 13.6875 -22.3125 L 13.6875 -4.75 L 19 -2.6875 Z M 19 0 "/></g></g></g><g fill="#000000" fill-opacity="1"><g transform="translate(326.466847, 96.762719)"><g><path d="M -0.0625 -31.171875 L 16.1875 -31.171875 L 16.1875 -28.4375 L 11.9375 -26.9375 L 20.0625 -6.375 L 27.5625 -26.9375 L 23.3125 -28.4375 L 23.3125 -31.171875 L 38.921875 -31.171875 L 38.921875 -28.4375 L 33.921875 -26.8125 L 19.9375 6.625 C 18.601562 9.789062 16.945312 12.3125 14.96875 14.1875 C 12.988281 16.0625 10.351562 17 7.0625 17 C 5.5625 17 4.238281 16.769531 3.09375 16.3125 C 1.945312 15.851562 1.1875 15.414062 0.8125 15 L 0.25 14.3125 L 1.9375 10.875 C 3.1875 11.539062 4.894531 11.875 7.0625 11.875 C 10.8125 11.875 13.6875 9.207031 15.6875 3.875 L 17.125 0.0625 L 4.9375 -26.8125 L -0.0625 -28.4375 Z M -0.0625 -31.171875 "/></g></g></g></svg>